<svg width="133" height="62" viewBox="0 0 133 62" fill="none" xmlns="http://www.w3.org/2000/svg">
<path d="M77.9601 61.4035H80.4744V51.7933C80.4744 48.9436 82.5646 47.4581 84.8971 47.4581C87.4418 47.4581 88.6232 48.701 88.6232 51.4901V61.4035H91.1375V51.672C91.1375 47.064 88.8352 45.2753 85.5636 45.2753C82.9584 45.2753 81.2014 46.5789 80.4744 48.0644V45.5482H77.9601V61.4035Z" fill="#FFCD05"/>
<path d="M100.73 61.6763C104.304 61.6763 106.94 60.0089 107.485 56.8257H104.971C104.638 58.675 103.214 59.5845 100.76 59.5845C97.5189 59.5845 95.7922 57.5836 95.671 53.976H107.606V53.1575C107.606 47.4884 104.153 45.2753 100.488 45.2753C96.1254 45.2753 93.0658 48.6101 93.0658 53.4V53.6426C93.0658 58.5234 96.2466 61.6763 100.73 61.6763ZM95.7619 51.9449C96.186 49.1255 97.9127 47.3671 100.488 47.3671C103.093 47.3671 104.789 48.6707 105.032 51.9449H95.7619Z" fill="#FFCD05"/>
<path d="M113.763 61.6763C116.096 61.6763 117.52 60.8881 118.701 59.4026V61.4035H121.215V50.9444C121.215 46.5183 118.459 45.2753 115.429 45.2753C112.37 45.2753 109.492 46.6092 109.159 50.2168H111.673C111.915 48.2766 113.127 47.3671 115.308 47.3671C117.732 47.3671 118.701 48.4282 118.701 50.9444V52.0964H116.429C112.37 52.0964 108.492 53.3394 108.492 57.0076C108.492 60.2514 110.825 61.6763 113.763 61.6763ZM114.006 59.6754C111.794 59.6754 111.007 58.6447 111.007 57.0076C111.007 54.6733 113.339 53.8851 116.52 53.8851H118.701V55.8556C118.701 58.3112 116.671 59.6754 114.006 59.6754Z" fill="#FFCD05"/>
<path d="M124.337 61.4035H126.851V52.7028C126.851 48.792 128.881 47.7916 132.061 47.64V45.2753C129.214 45.3663 127.851 46.6092 126.851 48.3979V45.5482H124.337V61.4035Z" fill="#FFCD05"/>
<path d="M7.80124 61.6764C11.6412 61.6764 14.4145 59.1145 14.7498 55.6681H12.4031C12.1288 58.2605 10.0869 59.572 7.83172 59.572C4.75364 59.572 2.62033 57.498 2.62033 53.5941V53.3501C2.62033 49.5987 4.84507 47.2808 7.74029 47.2808C9.93456 47.2808 11.7631 48.2263 12.1593 50.7577H14.6583C14.1707 46.7013 11.0622 45.1763 7.74029 45.1763C3.47365 45.1763 -0.000610352 48.4703 -0.000610352 53.3501V53.5941C-0.000610352 58.535 3.35175 61.6764 7.80124 61.6764Z" fill="#FFCD05"/>
<path d="M23.384 59.572C20.1535 59.572 18.1726 57.193 18.1726 53.5636V53.3196C18.1726 49.6597 20.184 47.2808 23.384 47.2808C26.5535 47.2808 28.5954 49.6597 28.5954 53.3501V53.5636C28.5954 57.1625 26.584 59.572 23.384 59.572ZM23.3535 61.6764C27.8944 61.6764 31.2163 58.352 31.2163 53.5331V53.2891C31.2163 48.5008 27.8944 45.1763 23.384 45.1763C18.8736 45.1763 15.5517 48.5313 15.5517 53.3196V53.5636C15.5517 58.23 18.8126 61.6764 23.3535 61.6764Z" fill="#FFCD05"/>
<path d="M39.3082 61.6764C41.6244 61.6764 43.8491 60.2125 44.7634 58.657V61.4019H47.2929V0.766602H44.7634V48.0128C43.8491 46.4573 42.2034 45.1763 39.552 45.1763C35.1634 45.1763 32.1158 48.6228 32.1158 53.5026V53.7466C32.1158 58.718 35.133 61.6764 39.3082 61.6764ZM39.5825 59.572C36.9006 59.572 34.7368 57.6505 34.7368 53.6246V53.3806C34.7368 49.5072 36.6263 47.2808 39.7958 47.2808C42.9043 47.2808 44.8548 49.2022 44.8548 53.2891V53.5331C44.8548 57.62 42.5386 59.572 39.5825 59.572Z" fill="#FFCD05"/>
<path d="M57.1047 61.6764C60.7009 61.6764 63.3523 59.999 63.9009 56.7966H61.3714C61.0361 58.657 59.6038 59.572 57.1352 59.572C53.8743 59.572 52.1371 57.559 52.0152 53.9296H64.0228V53.1061C64.0228 47.4028 60.5485 45.1763 56.8609 45.1763C52.4724 45.1763 49.3943 48.5313 49.3943 53.3501V53.5941C49.3943 58.5045 52.5943 61.6764 57.1047 61.6764ZM52.1067 51.8862C52.5333 49.0497 54.2705 47.2808 56.8609 47.2808C59.4819 47.2808 61.1885 48.5923 61.4323 51.8862H52.1067Z" fill="#FFCD05"/>
<path d="M66.1366 61.4019H68.6965V0.766602H66.1366V61.4019Z" fill="#FFCD05"/>
<path d="M72.1056 61.4019H74.6351V45.4508H72.1056V61.4019ZM73.3246 42.1264C74.2389 42.1264 75.0008 41.3639 75.0008 40.449C75.0008 39.534 74.2389 38.7715 73.3246 38.7715C72.4103 38.7715 71.6484 39.534 71.6484 40.449C71.6484 41.3639 72.4103 42.1264 73.3246 42.1264Z" fill="#FFCD05"/>
</svg>
